<svg version="1.1" id="Layer_1" xmlns="http://www.w3.org/2000/svg" xmlns:xlink="http://www.w3.org/1999/xlink" x="0px" y="0px"
	 width="100%" viewBox="0 0 1024 1024" enable-background="new 0 0 1024 1024" xml:space="preserve">
<path fill="transparent" opacity="1.000000" stroke="none" 
	d="
M478.000000,1025.000000 
	C318.666656,1025.000000 159.833328,1025.000000 1.000000,1025.000000 
	C1.000000,683.666687 1.000000,342.333344 1.000000,1.000000 
	C342.333344,1.000000 683.666687,1.000000 1025.000000,1.000000 
	C1025.000000,342.333344 1025.000000,683.666687 1025.000000,1025.000000 
	C842.833313,1025.000000 660.666687,1025.000000 478.000000,1025.000000 
M556.110657,682.500000 
	C556.110657,703.072815 556.110657,723.645569 556.110657,744.440430 
	C562.813477,741.220154 568.910583,737.904968 575.312378,735.354614 
	C579.390808,733.729858 580.822266,731.465637 580.793579,727.157166 
	C580.552490,690.997375 580.489197,654.836304 580.388916,618.675659 
	C580.359802,608.194885 580.384460,597.713989 580.384460,586.864502 
	C649.970520,618.578979 719.346985,650.197937 789.362671,682.108276 
	C789.362671,641.834656 789.364624,603.183411 789.362122,564.532227 
	C789.358765,511.206787 789.370239,457.881348 789.261292,404.556122 
	C789.257935,402.912354 788.433167,400.364197 787.236938,399.778442 
	C780.323181,396.393005 773.182495,393.471069 765.765625,390.238312 
	C765.765625,475.581085 765.765625,560.230957 765.765625,644.332153 
	C612.923767,575.609863 460.144073,506.915558 306.630280,437.891144 
	C306.630280,453.342224 306.652069,467.453278 306.626434,481.564270 
	C306.521729,539.221008 306.384277,596.877686 306.372314,654.534424 
	C306.371948,656.360962 307.094940,659.214661 308.353516,659.844055 
	C315.360260,663.347534 322.636658,666.311951 330.407074,669.717590 
	C330.407074,604.781555 330.407074,540.439880 330.407074,476.112579 
	C331.173401,476.074890 331.548309,475.942566 331.812866,476.059631 
	C357.277435,487.329376 382.715881,498.658508 408.216492,509.845978 
	C410.909637,511.027435 411.783173,512.438416 411.772247,515.407043 
	C411.635315,552.567749 411.656464,589.729126 411.646179,626.890320 
	C411.638702,653.851562 411.644714,680.812866 411.644714,707.635681 
	C419.807770,710.811707 427.707489,713.885193 436.045288,717.129150 
	C436.045288,652.169006 436.045288,587.751282 436.045288,523.021545 
	C443.338562,525.835938 450.173920,528.779602 457.221405,531.070862 
	C461.047241,532.314697 462.166748,534.103333 462.158722,538.128906 
	C462.031616,601.782288 462.076508,665.436096 462.241547,729.089355 
	C462.245850,730.744141 463.643646,733.147766 465.080200,733.918152 
	C471.871582,737.560608 478.902771,740.755981 486.348572,744.352234 
	C486.348572,677.394531 486.348572,610.944519 486.348572,543.841248 
	C508.252472,553.948975 529.528442,563.957153 551.004517,573.515686 
	C555.260437,575.409912 556.257263,577.687073 556.232727,582.014709 
	C556.044922,615.175598 556.118347,648.338074 556.110657,682.500000 
M608.640015,368.499695 
	C608.640015,416.734467 608.640015,464.969269 608.640015,513.979065 
	C599.421326,510.111694 590.859924,506.604187 582.403076,502.860413 
	C581.404968,502.418549 580.383240,500.683411 580.378540,499.543610 
	C580.285767,477.054779 580.356506,454.565369 580.364319,432.076050 
	C580.377747,393.415649 580.386963,354.755249 580.317261,316.094971 
	C580.314270,314.438446 580.015503,311.838226 578.985291,311.279144 
	C571.647644,307.297028 564.083740,303.731873 556.242432,299.861603 
	C556.242432,363.488678 556.242432,426.894379 556.242432,490.649292 
	C532.722595,480.174835 509.604797,469.879425 485.780029,459.269196 
	C485.780029,406.178406 485.780029,352.707184 485.780029,300.012451 
	C479.124451,303.159790 472.823303,306.409760 466.294220,309.108124 
	C463.229736,310.374634 461.984863,311.823425 462.012085,315.247864 
	C462.127380,329.743134 461.879852,344.240845 461.862030,358.737762 
	C461.825378,388.517700 461.851013,418.297699 461.851013,448.721802 
	C392.802979,418.811493 324.132355,389.064667 254.752899,359.010773 
	C254.752899,361.666687 254.750854,363.286865 254.753189,364.907043 
	C254.804886,400.733521 254.902237,436.560028 254.898544,472.386505 
	C254.893097,525.211121 254.806595,578.035706 254.822189,630.860291 
	C254.822586,632.173523 255.242645,634.274841 256.094299,634.675659 
	C263.325104,638.078308 270.701630,641.171387 278.501068,644.560059 
	C278.501068,561.007385 278.501068,478.146393 278.501068,394.081177 
	C432.110626,462.339996 585.045288,530.298950 738.228577,598.368347 
	C738.228577,582.885437 738.221375,567.403076 738.229858,551.920715 
	C738.260620,495.596710 738.244324,439.272552 738.444092,382.949127 
	C738.458069,379.026825 737.018921,377.345581 733.727966,376.037018 
	C729.570984,374.384003 725.589172,372.294159 721.505676,370.450714 
	C719.345215,369.475433 717.129333,368.622894 714.421509,367.500702 
	C714.421509,432.874207 714.421509,497.379791 714.421509,562.197571 
	C713.375244,561.860168 712.739502,561.720642 712.159058,561.458557 
	C687.075745,550.132019 662.034119,538.711609 636.876038,527.553711 
	C633.373657,526.000366 632.099182,524.483704 632.113159,520.399841 
	C632.321594,459.576996 632.290894,398.753204 632.182861,337.929871 
	C632.180054,336.350525 631.061707,333.927277 629.793762,333.337341 
	C623.064270,330.206390 616.120605,327.535919 608.639954,324.454163 
	C608.639954,338.964417 608.639954,353.232025 608.640015,368.499695 
z"/>
<path fill="#101010" opacity="1.000000" stroke="none" 
	d="
M556.110596,682.000000 
	C556.118347,648.338074 556.044922,615.175598 556.232727,582.014709 
	C556.257263,577.687073 555.260437,575.409912 551.004517,573.515686 
	C529.528442,563.957153 508.252472,553.948975 486.348572,543.841248 
	C486.348572,610.944519 486.348572,677.394531 486.348572,744.352234 
	C478.902771,740.755981 471.871582,737.560608 465.080200,733.918152 
	C463.643646,733.147766 462.245850,730.744141 462.241547,729.089355 
	C462.076508,665.436096 462.031616,601.782288 462.158722,538.128906 
	C462.166748,534.103333 461.047241,532.314697 457.221405,531.070862 
	C450.173920,528.779602 443.338562,525.835938 436.045288,523.021545 
	C436.045288,587.751282 436.045288,652.169006 436.045288,717.129150 
	C427.707489,713.885193 419.807770,710.811707 411.644714,707.635681 
	C411.644714,680.812866 411.638702,653.851562 411.646179,626.890320 
	C411.656464,589.729126 411.635315,552.567749 411.772247,515.407043 
	C411.783173,512.438416 410.909637,511.027435 408.216492,509.845978 
	C382.715881,498.658508 357.277435,487.329376 331.812866,476.059631 
	C331.548309,475.942566 331.173401,476.074890 330.407074,476.112579 
	C330.407074,540.439880 330.407074,604.781555 330.407074,669.717590 
	C322.636658,666.311951 315.360260,663.347534 308.353516,659.844055 
	C307.094940,659.214661 306.371948,656.360962 306.372314,654.534424 
	C306.384277,596.877686 306.521729,539.221008 306.626434,481.564270 
	C306.652069,467.453278 306.630280,453.342224 306.630280,437.891144 
	C460.144073,506.915558 612.923767,575.609863 765.765625,644.332153 
	C765.765625,560.230957 765.765625,475.581085 765.765625,390.238312 
	C773.182495,393.471069 780.323181,396.393005 787.236938,399.778442 
	C788.433167,400.364197 789.257935,402.912354 789.261292,404.556122 
	C789.370239,457.881348 789.358765,511.206787 789.362122,564.532227 
	C789.364624,603.183411 789.362671,641.834656 789.362671,682.108276 
	C719.346985,650.197937 649.970520,618.578979 580.384460,586.864502 
	C580.384460,597.713989 580.359802,608.194885 580.388916,618.675659 
	C580.489197,654.836304 580.552490,690.997375 580.793579,727.157166 
	C580.822266,731.465637 579.390808,733.729858 575.312378,735.354614 
	C568.910583,737.904968 562.813477,741.220154 556.110657,744.440430 
	C556.110657,723.645569 556.110657,703.072815 556.110596,682.000000 
z"/>
<path fill="#101010" opacity="1.000000" stroke="none" 
	d="
M608.640015,367.999695 
	C608.639954,353.232025 608.639954,338.964417 608.639954,324.454163 
	C616.120605,327.535919 623.064270,330.206390 629.793762,333.337341 
	C631.061707,333.927277 632.180054,336.350525 632.182861,337.929871 
	C632.290894,398.753204 632.321594,459.576996 632.113159,520.399841 
	C632.099182,524.483704 633.373657,526.000366 636.876038,527.553711 
	C662.034119,538.711609 687.075745,550.132019 712.159058,561.458557 
	C712.739502,561.720642 713.375244,561.860168 714.421509,562.197571 
	C714.421509,497.379791 714.421509,432.874207 714.421509,367.500702 
	C717.129333,368.622894 719.345215,369.475433 721.505676,370.450714 
	C725.589172,372.294159 729.570984,374.384003 733.727966,376.037018 
	C737.018921,377.345581 738.458069,379.026825 738.444092,382.949127 
	C738.244324,439.272552 738.260620,495.596710 738.229858,551.920715 
	C738.221375,567.403076 738.228577,582.885437 738.228577,598.368347 
	C585.045288,530.298950 432.110626,462.339996 278.501068,394.081177 
	C278.501068,478.146393 278.501068,561.007385 278.501068,644.560059 
	C270.701630,641.171387 263.325104,638.078308 256.094299,634.675659 
	C255.242645,634.274841 254.822586,632.173523 254.822189,630.860291 
	C254.806595,578.035706 254.893097,525.211121 254.898544,472.386505 
	C254.902237,436.560028 254.804886,400.733521 254.753189,364.907043 
	C254.750854,363.286865 254.752899,361.666687 254.752899,359.010773 
	C324.132355,389.064667 392.802979,418.811493 461.851013,448.721802 
	C461.851013,418.297699 461.825378,388.517700 461.862030,358.737762 
	C461.879852,344.240845 462.127380,329.743134 462.012085,315.247864 
	C461.984863,311.823425 463.229736,310.374634 466.294220,309.108124 
	C472.823303,306.409760 479.124451,303.159790 485.780029,300.012451 
	C485.780029,352.707184 485.780029,406.178406 485.780029,459.269196 
	C509.604797,469.879425 532.722595,480.174835 556.242432,490.649292 
	C556.242432,426.894379 556.242432,363.488678 556.242432,299.861603 
	C564.083740,303.731873 571.647644,307.297028 578.985291,311.279144 
	C580.015503,311.838226 580.314270,314.438446 580.317261,316.094971 
	C580.386963,354.755249 580.377747,393.415649 580.364319,432.076050 
	C580.356506,454.565369 580.285767,477.054779 580.378540,499.543610 
	C580.383240,500.683411 581.404968,502.418549 582.403076,502.860413 
	C590.859924,506.604187 599.421326,510.111694 608.640015,513.979065 
	C608.640015,464.969269 608.640015,416.734467 608.640015,367.999695 
z"/>
</svg>