<?xml version="1.0" encoding="utf-8"?>
<svg viewBox="0 0 500 400" xmlns="http://www.w3.org/2000/svg">
  <path fill="#F7F7F7" opacity="1.000000" stroke="none" d="M 320.215 329.629 C 321.257 335.289 322.3 340.948 323.342 346.61 C 325.218 356.801 327.092 366.995 328.729 377.406 C 325.265 376.804 321.974 376.977 318.733 377.313 C 317.207 377.471 315.689 377.679 314.151 377.679 C 299.977 377.685 285.806 377.688 271.632 377.688 C 244.251 377.687 216.87 377.684 189.48 377.442 C 189.846 374.851 190.22 372.502 190.687 369.976 C 190.881 369.147 190.985 368.495 191.087 367.844 C 191.468 366.257 191.915 364.683 192.221 363.083 C 194.3 352.219 196.35 341.35 198.801 330.306 C 210.3 330.135 221.403 330.143 232.507 330.14 C 233.275 330.14 234.091 330.194 234.804 329.967 C 236.228 329.519 237.665 329.587 239.108 329.587 C 265.082 329.579 291.054 329.578 317.029 329.578 C 318.091 329.578 319.152 329.612 320.215 329.629 Z" style=""/>
  <path fill="#E4E5E5" opacity="1.000000" stroke="none" d="M 10.059 40.387 C 9.999 39.814 9.888 39.239 9.886 38.666 C 9.867 33.45 9.831 28.235 9.873 23.021 C 9.908 18.536 11.609 14.756 14.971 11.765 C 17.293 9.699 20.008 8.579 23.127 8.501 C 23.996 8.479 24.866 8.49 25.735 8.49 C 175.324 8.49 324.912 8.49 474.501 8.49 C 475.08 8.49 475.661 8.525 476.239 8.485 C 482.276 8.083 489.245 12.92 490.216 21.308 C 490.284 21.881 490.298 22.465 490.296 23.042 C 490.287 28.45 490.267 33.857 489.999 39.531 C 489.205 39.796 488.665 39.796 488.064 39.529 C 487.997 36.753 487.992 34.242 487.983 31.731 C 487.976 29.318 488.058 26.899 487.941 24.491 C 487.591 17.4 481.844 10.91 474.249 11.213 C 473.766 11.233 473.282 11.214 472.8 11.214 C 324.291 11.214 175.784 11.214 27.275 11.217 C 26.214 11.217 25.152 11.234 24.09 11.267 C 22.315 11.327 20.669 11.882 19.142 12.737 C 16.448 14.248 14.456 16.432 13.223 19.27 C 12.584 20.738 11.935 22.171 11.956 23.878 C 12.009 28.318 11.91 32.76 11.848 37.199 C 11.834 38.253 11.72 39.305 11.452 40.358 C 10.855 40.369 10.457 40.378 10.059 40.387 Z" style=""/>
  <path fill="#E4E5E5" opacity="1.000000" stroke="none" d="M 199.194 323.966 C 197.844 323.947 196.494 323.914 195.144 323.914 C 138.983 323.912 82.822 323.912 26.661 323.912 C 25.504 323.912 24.346 323.924 23.188 323.903 C 17.687 323.803 13.937 320.969 11.53 316.229 C 10.477 314.154 9.911 311.879 9.911 309.53 C 9.907 302.873 9.953 296.215 10.227 289.288 C 10.857 289.015 11.239 289.01 11.7 289.268 C 11.793 294.938 11.795 300.347 11.839 305.755 C 11.85 307.103 11.918 308.462 12.109 309.794 C 12.427 312.004 13.213 314.1 14.563 315.86 C 17.137 319.22 20.515 321.267 24.854 321.435 C 26.108 321.483 27.365 321.456 28.62 321.456 C 176.097 321.456 323.574 321.456 471.051 321.456 C 472.113 321.456 473.176 321.426 474.239 321.457 C 479.529 321.616 485.071 318.307 487.286 311.827 C 487.922 309.967 488.014 308.054 488.014 306.111 C 488.011 292.011 488.025 277.91 488.043 263.81 C 488.043 262.75 488.108 261.69 488.341 260.641 C 489.066 260.657 489.591 260.663 490.119 260.67 C 490.148 261.536 490.201 262.405 490.203 263.271 C 490.226 278.237 490.242 293.2 490.266 308.164 C 490.268 310.001 490.215 311.823 489.692 313.61 C 488.617 317.287 486.532 320.189 483.251 322.201 C 481.575 323.229 479.776 323.872 477.787 323.886 C 476.628 323.894 475.47 323.91 474.312 323.91 C 424.305 323.912 374.295 323.912 324.286 323.913 C 323.032 323.913 321.777 323.923 319.98 323.891 C 319.246 323.849 319.052 323.839 318.86 323.839 C 279.838 323.837 240.816 323.837 201.794 323.841 C 200.929 323.841 200.062 323.923 199.194 323.966 Z" style=""/>
  <path fill="#F1EFF0" opacity="1.000000" stroke="none" d="M 333.777 381.237 C 337.778 381.848 341.787 382.424 345.78 383.086 C 347.179 383.317 347.532 383.814 347.536 385.286 C 347.541 386.316 347.835 387.425 346.975 388.418 C 345.938 388.855 344.769 388.654 343.632 388.655 C 324.612 388.665 305.595 388.658 286.577 388.654 C 249.022 388.646 211.469 388.638 173.915 388.627 C 173.145 388.627 172.373 388.586 171.305 388.361 C 170.93 387.949 170.852 387.739 170.818 387.283 C 171.011 385.916 170.621 384.723 171.289 383.658 C 171.548 383.521 171.789 383.326 172.06 383.267 C 172.995 383.064 173.937 382.886 174.884 382.739 C 178.199 382.221 181.518 381.719 185.017 381.368 C 186.346 381.604 187.493 381.753 188.638 381.753 C 235.81 381.762 282.979 381.758 330.151 381.755 C 330.923 381.755 331.7 381.808 332.463 381.724 C 332.914 381.676 333.34 381.407 333.777 381.237 Z" style=""/>
  <path fill="#CBCACA" opacity="1.000000" stroke="none" d="M 333.623 381.09 C 333.34 381.407 332.914 381.676 332.463 381.724 C 331.7 381.808 330.923 381.755 330.151 381.755 C 282.979 381.758 235.81 381.762 188.638 381.753 C 187.493 381.753 186.346 381.604 185.178 381.224 C 185.879 380.791 186.598 380.631 187.326 380.538 C 188.118 380.439 188.722 380.095 189.381 379.406 C 190.989 379.409 192.34 379.417 193.692 379.418 C 238.841 379.421 283.992 379.422 329.143 379.425 C 329.916 380.127 330.771 380.596 331.86 380.622 C 332.399 380.635 332.933 380.831 333.623 381.09 Z" style=""/>
  <path fill="#ADB2B4" opacity="1.000000" stroke="none" d="M 199.235 324.179 C 200.062 323.923 200.929 323.841 201.794 323.841 C 240.816 323.837 279.838 323.837 318.86 323.839 C 319.052 323.839 319.246 323.849 319.716 323.899 C 319.913 324.544 319.832 325.144 319.459 325.937 C 318.202 326.119 317.238 326.09 316.274 326.09 C 284.535 326.089 252.796 326.089 221.058 326.092 C 213.822 326.093 206.587 326.11 199.352 326.119 C 199.326 325.542 199.299 324.966 199.235 324.179 Z" style=""/>
  <path fill="#DDDDDD" opacity="1.000000" stroke="none" d="M 329.159 379.198 C 283.992 379.422 238.841 379.421 193.692 379.418 C 192.34 379.417 190.989 379.409 189.36 379.226 C 189.215 378.591 189.353 378.135 189.488 377.682 C 216.87 377.684 244.251 377.687 271.632 377.688 C 285.806 377.688 299.977 377.685 314.151 377.679 C 315.689 377.679 317.207 377.471 318.733 377.313 C 321.974 376.977 325.265 376.804 328.723 377.63 C 329.026 378.078 329.1 378.524 329.159 379.198 Z" style=""/>
  <path fill="#E1E1E3" opacity="1.000000" stroke="none" d="M 320.241 329.447 C 319.152 329.612 318.091 329.578 317.029 329.578 C 291.054 329.578 265.082 329.579 239.108 329.587 C 237.665 329.587 236.228 329.519 234.804 329.967 C 234.091 330.194 233.275 330.14 232.507 330.14 C 221.403 330.143 210.3 330.135 198.915 330.116 C 198.749 329.441 198.862 328.78 199.36 327.969 C 208.713 327.827 217.684 327.843 226.654 327.844 C 257.712 327.852 288.772 327.853 319.831 327.855 C 319.977 328.325 320.123 328.793 320.241 329.447 Z" style=""/>
  <path fill="#CDCDCD" opacity="1.000000" stroke="none" d="M 319.848 327.645 C 288.772 327.853 257.712 327.852 226.654 327.844 C 217.684 327.843 208.713 327.827 199.456 327.791 C 199.207 327.352 199.243 326.939 199.316 326.324 C 206.587 326.11 213.822 326.093 221.058 326.092 C 252.796 326.089 284.535 326.089 316.274 326.09 C 317.238 326.09 318.202 326.119 319.417 326.162 C 319.734 326.605 319.8 327.02 319.848 327.645 Z" style=""/>
  <path fill="#E4E5E5" opacity="1.000000" stroke="none" d="M 9.898 206.231 C 9.861 205.267 9.788 204.303 9.788 203.34 C 9.78 175.922 9.778 148.505 9.778 121.087 C 9.778 120.412 9.808 119.736 10.08 118.837 C 10.798 118.611 11.255 118.607 11.818 118.815 C 11.94 119.317 11.977 119.606 11.977 119.894 C 11.973 147.984 11.97 176.075 11.951 204.165 C 11.951 204.823 11.784 205.482 11.468 206.116 C 10.794 206.137 10.347 206.184 9.898 206.231 Z" style=""/>
  <path fill="#E4E5E5" opacity="1.000000" stroke="none" d="M 490.17 138.264 C 490.211 139.129 490.287 139.994 490.288 140.86 C 490.296 162.065 490.296 183.272 490.296 204.476 C 490.296 205.054 490.269 205.633 490.015 206.468 C 489.226 206.728 488.676 206.729 488.064 206.463 C 487.993 205.907 487.977 205.618 487.977 205.33 C 487.977 183.75 487.976 162.171 487.985 140.591 C 487.985 139.826 488.082 139.06 488.338 138.29 C 489.087 138.279 489.628 138.273 490.17 138.264 Z" style=""/>
  <path fill="#E4E5E5" opacity="1.000000" stroke="none" d="M 488.126 206.73 C 488.676 206.729 489.226 206.728 489.979 206.741 C 490.204 210.505 490.239 214.256 490.245 218.005 C 490.266 231.085 490.277 244.163 490.288 257.242 C 490.288 258.203 490.256 259.164 490.178 260.398 C 489.591 260.663 489.066 260.657 488.273 260.375 C 488.015 242.789 488.022 225.476 488.034 208.165 C 488.034 207.687 488.094 207.209 488.126 206.73 Z" style=""/>
  <path fill="#E4E5E5" opacity="1.000000" stroke="none" d="M 11.712 118.602 C 11.255 118.607 10.798 118.611 10.117 118.563 C 9.872 99.95 9.85 81.39 9.833 62.83 C 9.831 61.678 9.877 60.524 10.174 59.124 C 10.85 58.9 11.254 58.922 11.752 59.203 C 11.858 59.938 11.883 60.418 11.882 60.899 C 11.855 79.463 11.827 98.025 11.793 116.588 C 11.792 117.259 11.74 117.931 11.712 118.602 Z" style=""/>
  <path fill="#E4E5E5" opacity="1.000000" stroke="none" d="M 9.897 206.492 C 10.347 206.184 10.794 206.137 11.505 206.384 C 11.795 223.505 11.824 240.329 11.84 257.156 C 11.841 257.915 11.704 258.674 11.436 259.439 C 10.849 259.467 10.458 259.489 10.068 259.514 C 9.993 258.464 9.856 257.412 9.856 256.363 C 9.859 239.826 9.879 223.29 9.897 206.492 Z" style=""/>
  <path fill="#E4E5E5" opacity="1.000000" stroke="none" d="M 490.138 86.706 C 490.184 87.183 490.272 87.658 490.271 88.134 C 490.254 96.563 490.227 104.992 489.969 113.692 C 489.204 113.965 488.674 113.966 488.09 113.702 C 488.022 105.101 488.004 96.767 487.998 88.433 C 487.997 87.862 488.085 87.291 488.334 86.718 C 489.069 86.711 489.604 86.71 490.138 86.706 Z" style=""/>
  <path fill="#E4E5E5" opacity="1.000000" stroke="none" d="M 10.022 259.776 C 10.458 259.489 10.849 259.467 11.501 259.672 C 11.781 269.128 11.802 278.358 11.81 287.589 C 11.81 288.062 11.689 288.533 11.622 289.005 C 11.239 289.01 10.857 289.015 10.286 289.025 C 10.033 288.461 9.912 287.893 9.912 287.324 C 9.923 278.229 9.951 269.134 10.022 259.776 Z" style=""/>
  <path fill="#E4E5E5" opacity="1.000000" stroke="none" d="M 488.142 113.969 C 488.674 113.966 489.204 113.965 489.931 113.959 C 490.173 114.718 490.258 115.478 490.257 116.239 C 490.25 123.404 490.227 130.567 490.19 137.998 C 489.628 138.273 489.087 138.279 488.296 138.023 C 488.036 130.495 488.018 123.229 488.013 115.964 C 488.013 115.298 488.098 114.634 488.142 113.969 Z" style=""/>
  <path fill="#E4E5E5" opacity="1.000000" stroke="none" d="M 490.133 45.567 C 490.18 46.042 490.268 46.518 490.267 46.991 C 490.254 54.259 490.229 61.529 489.968 69.066 C 489.198 69.338 488.669 69.34 488.085 69.075 C 488.019 61.633 488.004 54.458 488.001 47.284 C 488.001 46.714 488.085 46.145 488.331 45.572 C 489.066 45.57 489.6 45.567 490.133 45.567 Z" style=""/>
  <path fill="#E4E5E5" opacity="1.000000" stroke="none" d="M 488.14 69.341 C 488.669 69.34 489.198 69.338 489.926 69.335 C 490.168 71.423 490.242 73.514 490.248 75.604 C 490.258 79.127 490.225 82.649 490.174 86.439 C 489.604 86.71 489.069 86.711 488.285 86.451 C 488.026 82.855 488 79.521 488.016 76.186 C 488.026 73.904 488.097 71.623 488.14 69.341 Z" style=""/>
  <path fill="#E4E5E5" opacity="1.000000" stroke="none" d="M 11.658 58.947 C 11.254 58.922 10.85 58.9 10.245 58.856 C 10.016 52.864 9.988 46.892 10.008 40.654 C 10.457 40.378 10.855 40.369 11.523 40.622 C 11.798 44.997 11.816 49.109 11.797 53.221 C 11.788 55.129 11.706 57.039 11.658 58.947 Z" style=""/>
  <path fill="#E4E5E5" opacity="1.000000" stroke="none" d="M 490.174 45.309 C 489.6 45.567 489.066 45.57 488.28 45.315 C 488.058 43.304 488.092 41.549 488.124 39.796 C 488.665 39.796 489.205 39.796 489.948 39.798 C 490.172 41.551 490.193 43.301 490.174 45.309 Z" style=""/>
  <path fill="#101010" opacity="1.000000" stroke="none" d="M 488.064 39.529 C 488.092 41.549 488.058 43.304 488.079 45.317 C 488.085 46.145 488.001 46.714 488.001 47.284 C 488.004 54.458 488.019 61.633 488.085 69.075 C 488.097 71.623 488.026 73.904 488.016 76.186 C 488 79.521 488.026 82.855 488.083 86.455 C 488.085 87.291 487.997 87.862 487.998 88.433 C 488.004 96.767 488.022 105.101 488.09 113.702 C 488.098 114.634 488.013 115.298 488.013 115.964 C 488.018 123.229 488.036 130.495 488.092 138.028 C 488.082 139.06 487.985 139.826 487.985 140.591 C 487.976 162.171 487.977 183.75 487.977 205.33 C 487.977 205.618 487.993 205.907 488.064 206.463 C 488.094 207.209 488.034 207.687 488.034 208.165 C 488.022 225.476 488.015 242.789 488.077 260.366 C 488.108 261.69 488.043 262.75 488.043 263.81 C 488.025 277.91 488.011 292.011 488.014 306.111 C 488.014 308.054 487.922 309.967 487.286 311.827 C 485.071 318.307 479.529 321.616 474.239 321.457 C 473.176 321.426 472.113 321.456 471.051 321.456 C 323.574 321.456 176.097 321.456 28.62 321.456 C 27.365 321.456 26.108 321.483 24.854 321.435 C 20.515 321.267 17.137 319.22 14.563 315.86 C 13.213 314.1 12.427 312.004 12.109 309.794 C 11.918 308.462 11.85 307.103 11.839 305.755 C 11.795 300.347 11.793 294.938 11.7 289.268 C 11.689 288.533 11.81 288.062 11.81 287.589 C 11.802 278.358 11.781 269.128 11.697 259.665 C 11.704 258.674 11.841 257.915 11.84 257.156 C 11.824 240.329 11.795 223.505 11.731 206.41 C 11.784 205.482 11.951 204.823 11.951 204.165 C 11.97 176.075 11.973 147.984 11.977 119.894 C 11.977 119.606 11.94 119.317 11.818 118.815 C 11.74 117.931 11.792 117.259 11.793 116.588 C 11.827 98.025 11.855 79.463 11.882 60.899 C 11.883 60.418 11.858 59.938 11.752 59.203 C 11.706 57.039 11.788 55.129 11.797 53.221 C 11.816 49.109 11.798 44.997 11.724 40.621 C 11.72 39.305 11.834 38.253 11.848 37.199 C 11.91 32.76 12.009 28.318 11.956 23.878 C 11.935 22.171 12.584 20.738 13.223 19.27 C 14.456 16.432 16.448 14.248 19.142 12.737 C 20.669 11.882 22.315 11.327 24.09 11.267 C 25.152 11.234 26.214 11.217 27.275 11.217 C 175.784 11.214 324.291 11.214 472.8 11.214 C 473.282 11.214 473.766 11.233 474.249 11.213 C 481.844 10.91 487.591 17.4 487.941 24.491 C 488.058 26.899 487.976 29.318 487.983 31.731 C 487.992 34.242 487.997 36.753 488.064 39.529 M 215.264 22.948 C 152.476 22.948 89.69 22.948 26.904 22.948 C 25.938 22.948 24.971 22.922 24.006 22.966 C 23.455 22.992 22.908 23.136 22.333 23.231 C 21.839 24.58 22.013 25.842 22.013 27.076 C 22.006 120.289 22.006 213.504 22.006 306.719 C 22.006 307.394 21.998 308.071 22.016 308.746 C 22.027 309.131 22.048 309.523 22.125 309.898 C 22.367 311.069 22.906 311.566 24.084 311.628 C 25.048 311.68 26.014 311.654 26.981 311.654 C 175.449 311.654 323.914 311.654 472.382 311.654 C 473.251 311.654 474.121 311.684 474.989 311.636 C 475.541 311.603 476.086 311.457 476.623 311.363 C 477.227 309.919 476.977 308.552 476.977 307.228 C 476.991 213.916 476.99 120.606 476.99 27.293 C 476.99 26.522 477.018 25.747 476.974 24.976 C 476.941 24.422 476.809 23.875 476.744 23.457 C 476.388 23.259 476.223 23.089 476.059 23.086 C 389.32 23.033 302.582 22.99 215.264 22.948 Z" style=""/>
  <path fill="transparent" opacity="1.000000" stroke="none" d="M 215.554 22.948 C 302.582 22.99 389.32 23.033 476.059 23.086 C 476.223 23.089 476.388 23.259 476.744 23.457 C 476.809 23.875 476.941 24.422 476.974 24.976 C 477.018 25.747 476.99 26.522 476.99 27.293 C 476.99 120.606 476.991 213.916 476.977 307.228 C 476.977 308.552 477.227 309.919 476.623 311.363 C 476.086 311.457 475.541 311.603 474.989 311.636 C 474.121 311.684 473.251 311.654 472.382 311.654 C 323.914 311.654 175.449 311.654 26.981 311.654 C 26.014 311.654 25.048 311.68 24.084 311.628 C 22.906 311.566 22.367 311.069 22.125 309.898 C 22.048 309.523 22.027 309.131 22.016 308.746 C 21.998 308.071 22.006 307.394 22.006 306.719 C 22.006 213.504 22.006 120.289 22.013 27.076 C 22.013 25.842 21.839 24.58 22.333 23.231 C 22.908 23.136 23.455 22.992 24.006 22.966 C 24.971 22.922 25.938 22.948 26.904 22.948 C 89.69 22.948 152.476 22.948 215.554 22.948 Z" style=""/>
</svg>