<svg viewBox="26.57 119.956 439.999 262.835" xmlns="http://www.w3.org/2000/svg" xmlns:bx="https://boxy-svg.com">
  <defs>
    <bx:guide x="237.67115033967494" y="84.99945374328847" angle="0"></bx:guide>
    <bx:guide x="247.486" y="171.15" angle="0"></bx:guide>
    <bx:guide x="237.18645501754077" y="94.2082405463919" angle="0"></bx:guide>
  </defs>
  <g id="BACKGROUND" transform="matrix(0.884405, 0, 0, 0.528406, 25.689177, 118.756264)" style="">
    <rect x="0.238" y="0.522" style="fill:#E8EBED;" width="500" height="499.478"></rect>
  </g>
  <g id="OBJECTS" transform="matrix(1, 0, 0, 1, -2.146404, 14.366148)">
    <g>
      <g>
        <ellipse transform="matrix(0.2422 -0.9702 0.9702 0.2422 -70.1994 211.0046)" style="fill:#344B7E;" cx="99.982" cy="150.443" rx="40.807" ry="40.807"></ellipse>
        <circle style="fill:#FFFFFF;" cx="99.982" cy="150.443" r="32.191"></circle>
        <polyline style="fill:none;stroke:#1C1E1D;stroke-width:2.4384;stroke-linecap:round;stroke-linejoin:round;stroke-miterlimit:10;" points="
				99.982,128.181 99.982,150.443 86.929,158.691 			"></polyline>
      </g>
      <g>
        <rect x="28.719" y="360.72" style="fill:#344B7E;" width="439.95" height="10.209"></rect>
      </g>
      <g>
        <g>
          <path style="fill:#84AAD7;" d="M105.759,351.7c2.515,0,8.335-0.327,12.308-3.097c2.616-1.825,3.946-4.301,3.946-7.362
					c0-3.384-1.367-6.041-4.063-7.903c-4.357-3.008-10.513-2.613-10.775-2.597l0.486,4.119c0.043,0.004,4.079-0.226,6.626,1.547
					c1.5,1.046,2.259,2.673,2.259,4.834c0,1.886-0.715,3.299-2.184,4.321c-3.284,2.29-9.317,1.987-9.376,1.987l-0.449,4.119
					C104.611,351.672,105.055,351.7,105.759,351.7z"></path>
          <polygon style="fill:#84AAD7;" points="111.026,322.495 71.026,322.495 76.952,360.4 104.804,360.4 				"></polygon>
        </g>
      </g>
      <g>
        <g>
          <rect x="323.793" y="146.149" style="fill:#344B7E;" width="121.564" height="20.587"></rect>
          <rect x="323.793" y="166.735" style="fill:#FDFDFB;" width="121.564" height="69.17"></rect>
          <line style="fill:none;stroke:#E8EBED;stroke-width:2;stroke-miterlimit:10;" x1="425.229" y1="166.735" x2="425.229" y2="235.905"></line>
          <line style="fill:none;stroke:#E8EBED;stroke-width:2;stroke-miterlimit:10;" x1="404.892" y1="166.735" x2="404.892" y2="235.905"></line>
          <line style="fill:none;stroke:#E8EBED;stroke-width:2;stroke-miterlimit:10;" x1="384.554" y1="166.735" x2="384.554" y2="235.905"></line>
          <line style="fill:none;stroke:#E8EBED;stroke-width:2;stroke-miterlimit:10;" x1="364.216" y1="166.735" x2="364.216" y2="235.905"></line>
          <line style="fill:none;stroke:#E8EBED;stroke-width:2;stroke-miterlimit:10;" x1="343.878" y1="166.735" x2="343.878" y2="235.905"></line>
          <line style="fill:none;stroke:#E8EBED;stroke-width:2;stroke-miterlimit:10;" x1="323.793" y1="183.481" x2="445.357" y2="183.481"></line>
          <line style="fill:none;stroke:#E8EBED;stroke-width:2;stroke-miterlimit:10;" x1="323.793" y1="200.956" x2="445.357" y2="200.956"></line>
          <line style="fill:none;stroke:#E8EBED;stroke-width:2;stroke-miterlimit:10;" x1="323.793" y1="218.43" x2="445.357" y2="218.43"></line>
        </g>
        <g>
          <g>
            <g>
              <path style="fill:#1C1E1D;" d="M408.075,206.732c4.028,3.721,8.405,6.992,13.122,9.791c1.418,0.841,2.705-1.367,1.29-2.207
							c-4.532-2.689-8.733-5.815-12.604-9.391C408.676,203.81,406.864,205.613,408.075,206.732L408.075,206.732z"></path>
            </g>
          </g>
          <g>
            <g>
              <path style="fill:#1C1E1D;" d="M421.186,202.983c-5.38,4.989-10.985,9.714-16.828,14.152c-1.293,0.982-0.021,3.203,1.29,2.207
							c6.018-4.571,11.803-9.413,17.345-14.552C424.202,203.669,422.391,201.865,421.186,202.983L421.186,202.983z"></path>
            </g>
          </g>
        </g>
      </g>
      <g></g>
      <g>
        <path style="fill:#C7DBF5;" d="M332.01,338.092H165.636c-7.01,0-12.692-5.682-12.692-12.692v-6.682h191.758v6.682
				C344.702,332.41,339.019,338.092,332.01,338.092z"></path>
        <rect x="229.527" y="338.092" style="fill:#84AAD7;" width="39.354" height="16.952"></rect>
        <path style="fill:#344B7E;" d="M344.702,319.032H152.944V215.853c0-4.904,3.975-8.879,8.879-8.879h173.999
				c4.904,0,8.879,3.975,8.879,8.879V319.032z"></path>
        <rect x="160.734" y="215.036" style="fill:#DAE6F5;" width="177.376" height="97.077"></rect>
        <path style="fill:#FFFFFF;" d="M253.154,327.538c0,2.392-1.939,4.331-4.331,4.331c-2.392,0-4.331-1.939-4.331-4.331
				c0-2.392,1.939-4.331,4.331-4.331C251.215,323.206,253.154,325.145,253.154,327.538z"></path>
        <path style="fill:#C7DBF5;" d="M285.716,360.72h-73.741l0,0c0-3.134,2.541-5.675,5.675-5.675h62.391
				C283.176,355.045,285.716,357.586,285.716,360.72L285.716,360.72z"></path>
        <rect x="169.643" y="330.716" style="fill:#FFFFFF;" width="26.878" height="15.852"></rect>
        <rect x="177.661" y="327.752" style="fill:#344B7E;" width="9.809" height="5.928"></rect>
        <g>
          <path style="fill:#FFFFFF;" d="M321.339,302.351h-71.931c-1.908,0-3.454-1.547-3.454-3.454v-68.566
					c0-1.908,1.546-3.454,3.454-3.454h71.931c1.908,0,3.454,1.547,3.454,3.454v68.566
					C324.793,300.805,323.246,302.351,321.339,302.351z"></path>
          <path style="fill:#FFFFFF;" d="M228.411,302.351h-51.34c-1.97,0-3.567-1.597-3.567-3.567v-35.185
					c0-1.97,1.597-3.567,3.567-3.567h51.34c1.97,0,3.567,1.597,3.567,3.567v35.185C231.978,300.754,230.381,302.351,228.411,302.351
					z"></path>
          <g>
            <g>
              <path style="fill:#DAE6F5;" d="M224.069,289.975h-42.704c-0.667,0-1.208-0.541-1.208-1.208v-0.116
							c0-0.667,0.541-1.208,1.208-1.208h42.704c0.667,0,1.208,0.541,1.208,1.208v0.116
							C225.278,289.434,224.737,289.975,224.069,289.975z"></path>
              <path style="fill:#DAE6F5;" d="M205.706,295.921h-24.341c-0.667,0-1.208-0.541-1.208-1.208v-0.116
							c0-0.667,0.541-1.208,1.208-1.208h24.341c0.667,0,1.208,0.541,1.208,1.208v0.116
							C206.914,295.38,206.373,295.921,205.706,295.921z"></path>
            </g>
            <ellipse transform="matrix(0.7071 -0.7071 0.7071 0.7071 -138.3248 211.9626)" style="fill:#91B1FA;" cx="186.699" cy="272.954" rx="8.038" ry="8.038"></ellipse>
          </g>
          <g>
            <path style="fill:#FFFFFF;" d="M206.914,238.046h-31.708c-0.667,0-1.208-0.541-1.208-1.208v-0.115
						c0-0.667,0.541-1.208,1.208-1.208h31.708c0.667,0,1.208,0.541,1.208,1.208v0.115
						C208.123,237.505,207.582,238.046,206.914,238.046z"></path>
            <path style="fill:#FFFFFF;" d="M219.835,253.99h-44.629c-0.667,0-1.208-0.541-1.208-1.208v-0.116
						c0-0.667,0.541-1.208,1.208-1.208h44.629c0.667,0,1.208,0.541,1.208,1.208v0.116
						C221.043,253.449,220.502,253.99,219.835,253.99z"></path>
            <path style="fill:#FFFFFF;" d="M230.452,245.984h-55.246c-0.667,0-1.208-0.541-1.208-1.208v-0.116
						c0-0.667,0.541-1.208,1.208-1.208h55.246c0.667,0,1.208,0.541,1.208,1.208v0.116
						C231.66,245.443,231.119,245.984,230.452,245.984z"></path>
          </g>
          <g>
            <rect x="260.824" y="240.506" style="fill:#91B1FA;" width="49.357" height="49.357"></rect>
            <circle style="fill:#C7DBF5;" cx="297.004" cy="261.879" r="7.591"></circle>
            <polygon style="fill:#FFFFFF;" points="287.315,274.399 296.127,263.861 310.811,277.126 310.811,289.863 287.315,289.863 
											"></polygon>
            <polygon style="fill:#344B7E;" points="260.824,274.208 270.774,258.935 302.455,289.863 260.824,289.863 					"></polygon>
          </g>
        </g>
      </g>
      <g>
        <g>
          <g>
            <g>
              <path style="fill:#597ACC;" d="M371.743,315.207c-4.595,0-8.321,3.725-8.321,8.321s3.725,8.321,8.321,8.321h81.178v-3.932
							h-79.804c-2.424,0-4.389-1.965-4.389-4.389c0-2.424,1.965-4.389,4.389-4.389h79.804v-3.932H371.743z"></path>
              <path style="fill:#FFFFFF;" d="M368.728,323.528c0,2.424,1.965,4.389,4.389,4.389h76.061v-8.778h-76.061
							C370.693,319.139,368.728,321.104,368.728,323.528z"></path>
            </g>
            <g>
              <path style="fill:#C7DBF5;" d="M372.941,331.92c-7.776,0-14.079,6.303-14.079,14.079s6.303,14.079,14.079,14.079h71.786
							v-5.189H373.83c-4.888,0-8.851-3.963-8.851-8.851l0,0c0-4.888,3.963-8.851,8.851-8.851h70.897v-5.268H372.941z"></path>
              <path style="fill:#FFFFFF;" d="M364.979,346.039L364.979,346.039c0,4.888,3.963,8.851,8.851,8.851h67.321v-17.702H373.83
							C368.942,337.188,364.979,341.15,364.979,346.039z"></path>
            </g>
          </g>
        </g>
        <polygon style="fill:#597ACC;" points="377.779,343.082 385.77,343.082 385.77,351.906 381.774,349.503 377.779,351.906 			"></polygon>
      </g>
    </g>
  </g>
</svg>